<mxfile host="app.diagrams.net" modified="2023-04-10T15:56:46.348Z" agent="Mozilla/5.0 (Windows NT 10.0; Win64; x64) AppleWebKit/537.36 (KHTML, like Gecko) Chrome/112.0.0.0 Safari/537.36 Edg/112.0.1722.34" etag="g-XVjXFdWgDUfKdyn6JV" version="21.1.5" type="github">
  <diagram name="Page-1" id="s4nZVDqAGuvq5t0Vk8kr">
    <mxGraphModel dx="2836" dy="1274" grid="1" gridSize="10" guides="1" tooltips="1" connect="1" arrows="1" fold="1" page="1" pageScale="1" pageWidth="850" pageHeight="1100" math="0" shadow="0">
      <root>
        <mxCell id="0" />
        <mxCell id="1" parent="0" />
        <mxCell id="-iKuCNO7rxMY4gLToUyj-1" value="&lt;font style=&quot;font-size: 24px;&quot;&gt;Continental DMS&lt;/font&gt;" style="rounded=0;whiteSpace=wrap;html=1;fillColor=#ffe6cc;strokeColor=#d79b00;glass=0;shadow=1;align=right;" parent="1" vertex="1">
          <mxGeometry x="200" y="280" width="1240" height="290" as="geometry" />
        </mxCell>
        <mxCell id="-iKuCNO7rxMY4gLToUyj-2" value="&lt;div style=&quot;text-align: center;&quot;&gt;&lt;span style=&quot;font-size: 24px;&quot;&gt;Raspberry Pi&lt;/span&gt;&lt;/div&gt;&lt;div style=&quot;&quot;&gt;&lt;span style=&quot;font-size: 24px;&quot;&gt;HW/SW package&lt;/span&gt;&lt;/div&gt;" style="rounded=0;whiteSpace=wrap;html=1;fillColor=#dae8fc;strokeColor=#6c8ebf;glass=0;shadow=1;align=right;" parent="1" vertex="1">
          <mxGeometry x="200" y="630" width="1240" height="290" as="geometry" />
        </mxCell>
        <mxCell id="7PrTDbtxTZ8NZGgIPqjW-8" value="" style="edgeStyle=orthogonalEdgeStyle;rounded=0;orthogonalLoop=1;jettySize=auto;html=1;entryX=0.246;entryY=-0.006;entryDx=0;entryDy=0;entryPerimeter=0;" parent="1" source="-iKuCNO7rxMY4gLToUyj-3" target="-iKuCNO7rxMY4gLToUyj-9" edge="1">
          <mxGeometry relative="1" as="geometry" />
        </mxCell>
        <mxCell id="7PrTDbtxTZ8NZGgIPqjW-9" value="&lt;font style=&quot;font-size: 18px;&quot;&gt;Algo Data&lt;/font&gt;" style="edgeLabel;html=1;align=center;verticalAlign=middle;resizable=0;points=[];labelBackgroundColor=none;" parent="7PrTDbtxTZ8NZGgIPqjW-8" vertex="1" connectable="0">
          <mxGeometry x="-0.0796" relative="1" as="geometry">
            <mxPoint x="40" as="offset" />
          </mxGeometry>
        </mxCell>
        <mxCell id="-iKuCNO7rxMY4gLToUyj-3" value="&lt;font style=&quot;font-size: 24px;&quot;&gt;3rd Algo Library&lt;/font&gt;" style="rounded=0;whiteSpace=wrap;html=1;fillColor=#dae8fc;strokeColor=#6c8ebf;glass=0;shadow=1;" parent="1" vertex="1">
          <mxGeometry x="200" y="130" width="1240" height="90" as="geometry" />
        </mxCell>
        <mxCell id="-iKuCNO7rxMY4gLToUyj-4" value="&lt;font style=&quot;font-size: 24px;&quot;&gt;RaspberryPi v4&lt;/font&gt;" style="rounded=0;whiteSpace=wrap;html=1;fillColor=#e1d5e7;strokeColor=#9673a6;" parent="1" vertex="1">
          <mxGeometry x="250" y="860" width="990" height="60" as="geometry" />
        </mxCell>
        <mxCell id="-iKuCNO7rxMY4gLToUyj-5" value="&lt;span style=&quot;font-size: 24px;&quot;&gt;RPi Yocto Linux&lt;/span&gt;" style="rounded=0;whiteSpace=wrap;html=1;fillColor=#e1d5e7;strokeColor=#9673a6;" parent="1" vertex="1">
          <mxGeometry x="250" y="780" width="990" height="60" as="geometry" />
        </mxCell>
        <mxCell id="7PrTDbtxTZ8NZGgIPqjW-21" style="edgeStyle=orthogonalEdgeStyle;rounded=0;orthogonalLoop=1;jettySize=auto;html=1;exitX=0.899;exitY=0.004;exitDx=0;exitDy=0;exitPerimeter=0;" parent="1" source="-iKuCNO7rxMY4gLToUyj-7" target="-iKuCNO7rxMY4gLToUyj-11" edge="1">
          <mxGeometry relative="1" as="geometry" />
        </mxCell>
        <mxCell id="7PrTDbtxTZ8NZGgIPqjW-22" value="&lt;font style=&quot;font-size: 18px;&quot;&gt;V4L APIs&lt;/font&gt;" style="edgeLabel;html=1;align=center;verticalAlign=middle;resizable=0;points=[];labelBackgroundColor=none;" parent="7PrTDbtxTZ8NZGgIPqjW-21" vertex="1" connectable="0">
          <mxGeometry x="0.2344" relative="1" as="geometry">
            <mxPoint x="40" as="offset" />
          </mxGeometry>
        </mxCell>
        <mxCell id="-iKuCNO7rxMY4gLToUyj-7" value="&lt;span style=&quot;font-size: 24px;&quot;&gt;UVC/Video4Linux&lt;/span&gt;" style="rounded=0;whiteSpace=wrap;html=1;fillColor=#e1d5e7;strokeColor=#9673a6;" parent="1" vertex="1">
          <mxGeometry x="250" y="700" width="990" height="60" as="geometry" />
        </mxCell>
        <mxCell id="-iKuCNO7rxMY4gLToUyj-8" value="&lt;font style=&quot;font-size: 24px;&quot;&gt;DMSD&lt;/font&gt;" style="rounded=0;whiteSpace=wrap;html=1;fillColor=none;align=right;" parent="1" vertex="1">
          <mxGeometry x="680" y="400" width="570" height="170" as="geometry" />
        </mxCell>
        <mxCell id="7PrTDbtxTZ8NZGgIPqjW-4" value="" style="edgeStyle=orthogonalEdgeStyle;rounded=0;orthogonalLoop=1;jettySize=auto;html=1;entryX=0.617;entryY=0.997;entryDx=0;entryDy=0;entryPerimeter=0;" parent="1" source="-iKuCNO7rxMY4gLToUyj-9" target="-iKuCNO7rxMY4gLToUyj-3" edge="1">
          <mxGeometry relative="1" as="geometry" />
        </mxCell>
        <mxCell id="7PrTDbtxTZ8NZGgIPqjW-6" value="&lt;font style=&quot;font-size: 18px;&quot;&gt;Img Data&lt;/font&gt;" style="edgeLabel;html=1;align=center;verticalAlign=middle;resizable=0;points=[];labelBackgroundColor=none;" parent="7PrTDbtxTZ8NZGgIPqjW-4" vertex="1" connectable="0">
          <mxGeometry x="-0.1525" y="-1" relative="1" as="geometry">
            <mxPoint x="44" y="-4" as="offset" />
          </mxGeometry>
        </mxCell>
        <mxCell id="PHggKgTWU_jsDosSwRtQ-6" style="rounded=0;orthogonalLoop=1;jettySize=auto;html=1;exitX=1;exitY=0;exitDx=0;exitDy=0;entryX=0;entryY=1;entryDx=0;entryDy=0;endArrow=none;endFill=0;dashed=1;" edge="1" parent="1" source="-iKuCNO7rxMY4gLToUyj-9" target="PHggKgTWU_jsDosSwRtQ-5">
          <mxGeometry relative="1" as="geometry" />
        </mxCell>
        <mxCell id="-iKuCNO7rxMY4gLToUyj-9" value="&lt;font style=&quot;font-size: 24px;&quot;&gt;Algo Interface Lib&lt;/font&gt;" style="rounded=0;whiteSpace=wrap;html=1;fillColor=#fff2cc;gradientColor=#ffd966;strokeColor=#d6b656;" parent="1" vertex="1">
          <mxGeometry x="680" y="280" width="570" height="80" as="geometry" />
        </mxCell>
        <mxCell id="7PrTDbtxTZ8NZGgIPqjW-16" style="edgeStyle=orthogonalEdgeStyle;rounded=0;orthogonalLoop=1;jettySize=auto;html=1;exitX=0;exitY=0.75;exitDx=0;exitDy=0;entryX=1;entryY=0.75;entryDx=0;entryDy=0;" parent="1" source="-iKuCNO7rxMY4gLToUyj-10" target="7PrTDbtxTZ8NZGgIPqjW-14" edge="1">
          <mxGeometry relative="1" as="geometry" />
        </mxCell>
        <mxCell id="7PrTDbtxTZ8NZGgIPqjW-17" value="&lt;font style=&quot;font-size: 18px;&quot;&gt;Img Data&lt;br&gt;Algo Data&lt;/font&gt;" style="edgeLabel;html=1;align=center;verticalAlign=middle;resizable=0;points=[];labelBackgroundColor=none;" parent="7PrTDbtxTZ8NZGgIPqjW-16" vertex="1" connectable="0">
          <mxGeometry x="-0.2855" y="5" relative="1" as="geometry">
            <mxPoint x="-23" y="-5" as="offset" />
          </mxGeometry>
        </mxCell>
        <mxCell id="PHggKgTWU_jsDosSwRtQ-4" style="rounded=0;orthogonalLoop=1;jettySize=auto;html=1;exitX=0;exitY=0;exitDx=0;exitDy=0;entryX=1;entryY=1;entryDx=0;entryDy=0;endArrow=none;endFill=0;dashed=1;" edge="1" parent="1" source="-iKuCNO7rxMY4gLToUyj-10" target="PHggKgTWU_jsDosSwRtQ-2">
          <mxGeometry relative="1" as="geometry" />
        </mxCell>
        <mxCell id="-iKuCNO7rxMY4gLToUyj-10" value="&lt;font style=&quot;font-size: 24px;&quot;&gt;ImageStreamProvider&lt;/font&gt;" style="rounded=0;whiteSpace=wrap;html=1;fillColor=#fff2cc;gradientColor=#ffd966;strokeColor=#d6b656;" parent="1" vertex="1">
          <mxGeometry x="200" y="370" width="390" height="200" as="geometry" />
        </mxCell>
        <mxCell id="-iKuCNO7rxMY4gLToUyj-14" value="" style="edgeStyle=orthogonalEdgeStyle;rounded=0;orthogonalLoop=1;jettySize=auto;html=1;" parent="1" source="-iKuCNO7rxMY4gLToUyj-11" target="-iKuCNO7rxMY4gLToUyj-13" edge="1">
          <mxGeometry relative="1" as="geometry" />
        </mxCell>
        <mxCell id="-iKuCNO7rxMY4gLToUyj-15" value="&lt;font style=&quot;font-size: 18px;&quot;&gt;Img Data&lt;/font&gt;" style="edgeLabel;html=1;align=center;verticalAlign=middle;resizable=0;points=[];labelBackgroundColor=none;" parent="-iKuCNO7rxMY4gLToUyj-14" vertex="1" connectable="0">
          <mxGeometry x="0.1958" relative="1" as="geometry">
            <mxPoint x="10" y="15" as="offset" />
          </mxGeometry>
        </mxCell>
        <mxCell id="PHggKgTWU_jsDosSwRtQ-8" style="rounded=0;orthogonalLoop=1;jettySize=auto;html=1;entryX=0;entryY=0.75;entryDx=0;entryDy=0;endArrow=none;endFill=0;dashed=1;" edge="1" parent="1" source="-iKuCNO7rxMY4gLToUyj-11" target="PHggKgTWU_jsDosSwRtQ-7">
          <mxGeometry relative="1" as="geometry" />
        </mxCell>
        <mxCell id="-iKuCNO7rxMY4gLToUyj-11" value="&lt;font style=&quot;font-size: 24px;&quot;&gt;ImagerImpl&lt;/font&gt;" style="rounded=0;whiteSpace=wrap;html=1;fillColor=#fff2cc;gradientColor=#ffd966;strokeColor=#d6b656;" parent="1" vertex="1">
          <mxGeometry x="1050" y="500" width="180" height="50" as="geometry" />
        </mxCell>
        <mxCell id="-iKuCNO7rxMY4gLToUyj-12" value="&lt;font style=&quot;font-size: 36px;&quot;&gt;USBCamera&lt;/font&gt;" style="rounded=0;whiteSpace=wrap;html=1;fillColor=#dae8fc;strokeColor=#6c8ebf;" parent="1" vertex="1">
          <mxGeometry x="880" y="950" width="300" height="140" as="geometry" />
        </mxCell>
        <mxCell id="7PrTDbtxTZ8NZGgIPqjW-1" style="edgeStyle=orthogonalEdgeStyle;rounded=0;orthogonalLoop=1;jettySize=auto;html=1;exitX=0.86;exitY=0.033;exitDx=0;exitDy=0;entryX=0.447;entryY=1.013;entryDx=0;entryDy=0;exitPerimeter=0;entryPerimeter=0;" parent="1" source="-iKuCNO7rxMY4gLToUyj-13" target="-iKuCNO7rxMY4gLToUyj-9" edge="1">
          <mxGeometry relative="1" as="geometry" />
        </mxCell>
        <mxCell id="7PrTDbtxTZ8NZGgIPqjW-3" value="&lt;font style=&quot;font-size: 18px;&quot;&gt;Img Data&lt;/font&gt;" style="edgeLabel;html=1;align=center;verticalAlign=middle;resizable=0;points=[];labelBackgroundColor=none;" parent="7PrTDbtxTZ8NZGgIPqjW-1" vertex="1" connectable="0">
          <mxGeometry x="-0.0887" y="2" relative="1" as="geometry">
            <mxPoint x="47" as="offset" />
          </mxGeometry>
        </mxCell>
        <mxCell id="7PrTDbtxTZ8NZGgIPqjW-12" style="edgeStyle=orthogonalEdgeStyle;rounded=0;orthogonalLoop=1;jettySize=auto;html=1;exitX=0;exitY=0.5;exitDx=0;exitDy=0;entryX=1;entryY=0.775;entryDx=0;entryDy=0;entryPerimeter=0;" parent="1" source="-iKuCNO7rxMY4gLToUyj-13" target="-iKuCNO7rxMY4gLToUyj-10" edge="1">
          <mxGeometry relative="1" as="geometry" />
        </mxCell>
        <mxCell id="7PrTDbtxTZ8NZGgIPqjW-13" value="&lt;font style=&quot;font-size: 18px;&quot;&gt;Img Data&lt;br&gt;Algo Data&lt;/font&gt;" style="edgeLabel;html=1;align=center;verticalAlign=middle;resizable=0;points=[];labelBackgroundColor=none;" parent="7PrTDbtxTZ8NZGgIPqjW-12" vertex="1" connectable="0">
          <mxGeometry x="-0.1677" y="2" relative="1" as="geometry">
            <mxPoint x="-22" y="-2" as="offset" />
          </mxGeometry>
        </mxCell>
        <mxCell id="-iKuCNO7rxMY4gLToUyj-13" value="&lt;font style=&quot;font-size: 24px;&quot;&gt;DataChannel&lt;/font&gt;" style="rounded=0;whiteSpace=wrap;html=1;fillColor=#ffe6cc;strokeColor=#d79b00;" parent="1" vertex="1">
          <mxGeometry x="780" y="500" width="180" height="50" as="geometry" />
        </mxCell>
        <mxCell id="-iKuCNO7rxMY4gLToUyj-19" value="" style="endArrow=classic;html=1;rounded=0;" parent="1" edge="1">
          <mxGeometry width="50" height="50" relative="1" as="geometry">
            <mxPoint x="1110" y="950" as="sourcePoint" />
            <mxPoint x="1110" y="550" as="targetPoint" />
          </mxGeometry>
        </mxCell>
        <mxCell id="7PrTDbtxTZ8NZGgIPqjW-10" value="" style="endArrow=classic;html=1;rounded=0;exitX=0.25;exitY=1;exitDx=0;exitDy=0;entryX=0.25;entryY=0;entryDx=0;entryDy=0;" parent="1" source="-iKuCNO7rxMY4gLToUyj-9" target="-iKuCNO7rxMY4gLToUyj-13" edge="1">
          <mxGeometry width="50" height="50" relative="1" as="geometry">
            <mxPoint x="630" y="350" as="sourcePoint" />
            <mxPoint x="680" y="300" as="targetPoint" />
          </mxGeometry>
        </mxCell>
        <mxCell id="7PrTDbtxTZ8NZGgIPqjW-11" value="&lt;font style=&quot;font-size: 18px;&quot;&gt;Algo Data&lt;/font&gt;" style="edgeLabel;html=1;align=center;verticalAlign=middle;resizable=0;points=[];labelBackgroundColor=none;" parent="7PrTDbtxTZ8NZGgIPqjW-10" vertex="1" connectable="0">
          <mxGeometry x="0.1642" y="-1" relative="1" as="geometry">
            <mxPoint x="-43" as="offset" />
          </mxGeometry>
        </mxCell>
        <mxCell id="7PrTDbtxTZ8NZGgIPqjW-18" style="edgeStyle=orthogonalEdgeStyle;rounded=0;orthogonalLoop=1;jettySize=auto;html=1;exitX=0;exitY=0.75;exitDx=0;exitDy=0;entryX=1.008;entryY=0.719;entryDx=0;entryDy=0;entryPerimeter=0;" parent="1" source="7PrTDbtxTZ8NZGgIPqjW-14" target="7PrTDbtxTZ8NZGgIPqjW-15" edge="1">
          <mxGeometry relative="1" as="geometry" />
        </mxCell>
        <mxCell id="7PrTDbtxTZ8NZGgIPqjW-20" value="&lt;font style=&quot;font-size: 18px;&quot;&gt;Img Data&lt;br&gt;Algo Data&lt;/font&gt;" style="edgeLabel;html=1;align=center;verticalAlign=middle;resizable=0;points=[];labelBackgroundColor=none;" parent="7PrTDbtxTZ8NZGgIPqjW-18" vertex="1" connectable="0">
          <mxGeometry x="0.2152" relative="1" as="geometry">
            <mxPoint as="offset" />
          </mxGeometry>
        </mxCell>
        <mxCell id="PHggKgTWU_jsDosSwRtQ-3" style="rounded=0;orthogonalLoop=1;jettySize=auto;html=1;exitX=0.5;exitY=0;exitDx=0;exitDy=0;entryX=0.5;entryY=1;entryDx=0;entryDy=0;dashed=1;endArrow=none;endFill=0;" edge="1" parent="1" source="7PrTDbtxTZ8NZGgIPqjW-14" target="PHggKgTWU_jsDosSwRtQ-2">
          <mxGeometry relative="1" as="geometry" />
        </mxCell>
        <mxCell id="7PrTDbtxTZ8NZGgIPqjW-14" value="&lt;font style=&quot;font-size: 24px;&quot;&gt;ImageStreamConsumer&lt;/font&gt;" style="rounded=0;whiteSpace=wrap;html=1;fillColor=#fff2cc;gradientColor=#ffd966;strokeColor=#d6b656;" parent="1" vertex="1">
          <mxGeometry x="-350" y="370" width="390" height="200" as="geometry" />
        </mxCell>
        <mxCell id="7PrTDbtxTZ8NZGgIPqjW-15" value="&lt;font style=&quot;font-size: 36px;&quot;&gt;Display&lt;/font&gt;" style="rounded=0;whiteSpace=wrap;html=1;fillColor=#dae8fc;strokeColor=#6c8ebf;" parent="1" vertex="1">
          <mxGeometry x="-730" y="355" width="230" height="230" as="geometry" />
        </mxCell>
        <mxCell id="7PrTDbtxTZ8NZGgIPqjW-23" value="&lt;font style=&quot;font-size: 24px;&quot;&gt;3rd party&amp;nbsp; SW/HW&lt;/font&gt;" style="rounded=0;whiteSpace=wrap;html=1;fillColor=#dae8fc;strokeColor=#6c8ebf;" parent="1" vertex="1">
          <mxGeometry x="-560" y="640" width="120" height="60" as="geometry" />
        </mxCell>
        <mxCell id="7PrTDbtxTZ8NZGgIPqjW-24" value="&lt;font style=&quot;font-size: 24px;&quot;&gt;Annotation:&lt;/font&gt;" style="text;html=1;align=center;verticalAlign=middle;resizable=0;points=[];autosize=1;strokeColor=none;fillColor=none;" parent="1" vertex="1">
          <mxGeometry x="-720" y="650" width="140" height="40" as="geometry" />
        </mxCell>
        <mxCell id="7PrTDbtxTZ8NZGgIPqjW-25" value="&lt;font style=&quot;font-size: 24px;&quot;&gt;Continental SW&lt;/font&gt;" style="rounded=0;whiteSpace=wrap;html=1;fillColor=#ffe6cc;strokeColor=#d79b00;" parent="1" vertex="1">
          <mxGeometry x="-410" y="640" width="130" height="60" as="geometry" />
        </mxCell>
        <mxCell id="7PrTDbtxTZ8NZGgIPqjW-26" value="&lt;font style=&quot;font-size: 24px;&quot;&gt;Modules that need changes&lt;/font&gt;" style="rounded=0;whiteSpace=wrap;html=1;fillColor=#fff2cc;gradientColor=#ffd966;strokeColor=#d6b656;" parent="1" vertex="1">
          <mxGeometry x="-240" y="640" width="180" height="60" as="geometry" />
        </mxCell>
        <mxCell id="PHggKgTWU_jsDosSwRtQ-2" value="&lt;h1&gt;&lt;font style=&quot;font-size: 36px;&quot;&gt;Configuration Change&lt;/font&gt;&lt;/h1&gt;&lt;p&gt;&lt;font style=&quot;font-size: 24px;&quot;&gt;Change of the buffer size&lt;/font&gt;&lt;/p&gt;" style="text;html=1;strokeColor=default;fillColor=none;spacing=5;spacingTop=-20;whiteSpace=wrap;overflow=hidden;rounded=0;" vertex="1" parent="1">
          <mxGeometry x="-500" y="100" width="450" height="120" as="geometry" />
        </mxCell>
        <mxCell id="PHggKgTWU_jsDosSwRtQ-5" value="&lt;h1&gt;&lt;font style=&quot;font-size: 36px;&quot;&gt;Implementation Change&lt;/font&gt;&lt;/h1&gt;&lt;p&gt;&lt;span style=&quot;font-size: 24px;&quot;&gt;The new algorithm needs more time to start up, hence I needed to remove the debounce counter to remove the time constraint so that Algo lib can freely start without triggering &quot;fail to start Algo&quot; error&lt;/span&gt;&lt;/p&gt;" style="text;html=1;strokeColor=default;fillColor=none;spacing=5;spacingTop=-20;whiteSpace=wrap;overflow=hidden;rounded=0;" vertex="1" parent="1">
          <mxGeometry x="1540" y="10" width="450" height="220" as="geometry" />
        </mxCell>
        <mxCell id="PHggKgTWU_jsDosSwRtQ-7" value="&lt;h1&gt;&lt;font style=&quot;font-size: 36px;&quot;&gt;Implementation Change&lt;/font&gt;&lt;/h1&gt;&lt;p&gt;&lt;font style=&quot;font-size: 24px;&quot;&gt;Redirected the Generic Software to detect and work with USB Camera. Utilized V4L APIs to communicate with USB camera to: allocate memory buffer, start and stop streaming, enqueue and dequeue buffers&lt;/font&gt;&lt;/p&gt;" style="text;html=1;strokeColor=default;fillColor=none;spacing=5;spacingTop=-20;whiteSpace=wrap;overflow=hidden;rounded=0;" vertex="1" parent="1">
          <mxGeometry x="1550" y="290" width="450" height="250" as="geometry" />
        </mxCell>
      </root>
    </mxGraphModel>
  </diagram>
</mxfile>
